<svg width="196" height="196" viewBox="0 0 196 196" fill="none" xmlns="http://www.w3.org/2000/svg">
<g clip-path="url(#clip0_30_74)">
<circle cx="98" cy="98" r="98" fill="#FF81DC"/>
<path d="M-14 -91C50.6667 -19.5 217.5 124.2 367.5 127" stroke="#FF5ED2" stroke-width="30"/>
<path d="M-69 -40C-4.33334 31.5 162.5 175.2 312.5 178" stroke="#FF5ED2" stroke-width="30"/>
<path d="M-120.774 10.0399C-50.1218 75.6317 128.601 204.244 278.274 193.96" stroke="#FF5ED2" stroke-width="21"/>
<path d="M-155.253 115C-66.758 153.245 144.645 214.822 282.301 155.166" stroke="#FF5ED2" stroke-width="15"/>
<path d="M-81 -14C-16.3333 57.5 150.5 201.2 300.5 204" stroke="#FF5ED2" stroke-width="8"/>
<path d="M-94.3135 60.6081C-20.3253 122.412 164.884 241.495 313.814 223.392" stroke="#FF5ED2" stroke-width="8"/>
<path d="M-30.1409 -97.9653C24.6399 -18.6363 171.289 145.61 319.641 167.965" stroke="#FF5ED2" stroke-width="19"/>
</g>
<defs>
<clipPath id="clip0_30_74">
<rect width="196" height="196" rx="98" fill="white"/>
</clipPath>
</defs>
</svg>
