<svg width="196" height="196" viewBox="0 0 196 196" fill="none" xmlns="http://www.w3.org/2000/svg">
<g clip-path="url(#clip0_30_133)">
<circle cx="98" cy="98" r="98" fill="#3CECC2" fill-opacity="0.69"/>
<path d="M137.763 28.1273C125.893 19.8458 115.563 25.3763 108.712 32.886C103.55 38.544 96.7321 42.5254 89.5329 45.1386C81.6294 48.0075 83.2414 53.3063 87.8551 58.3221C93.3712 64.3189 102.792 62.9265 110.939 63.0522C117.131 63.1477 124.116 65.9384 129.763 74.6273C137.107 85.9257 147.044 84.5917 154.539 80.4847C159.951 77.5191 162.039 71.0528 160.545 65.0655C157.603 53.279 150.828 37.2418 137.763 28.1273Z" fill="#6ECFB8" stroke="#6ECFB8" stroke-width="5"/>
<path d="M120.5 108.806C120.5 99.4493 92.4374 95.5967 74.185 94.554C70.4609 94.3413 66.7463 93.0607 63.0166 93.0018C57.8352 92.92 51.9924 95.5374 55.5 104.306C60.5 116.806 33 117.806 33 136.806C33 155.806 93 163.806 92 139.806C91 115.806 120.5 121.806 120.5 108.806Z" fill="#6ECFB8" stroke="#6ECFB8" stroke-width="5"/>
<path d="M39.9999 43C33.9999 53.5 21.4999 51.5 11.9999 61.5C-2.16872 76.4143 -21.5559 45.7588 -9.05313 29.4227C20.0319 -8.57982 105.507 -10.8335 101 -1.00002C95.4999 11 75.4999 8.99998 65.9999 19C56.4999 29 45.9999 32.5 39.9999 43Z" fill="#6ECFB8" stroke="#6ECFB8" stroke-width="5"/>
<path d="M140 136.5C139.903 137.421 139.642 138.337 139.25 139.246C131.739 156.664 118.502 170.687 120.699 189.528C121.68 197.945 124.311 203.924 129.5 206C139.5 210 174 196 187 188.5C200 181 215 105.5 209.5 96C204 86.5 189.5 98.5 188.5 107C187.5 115.5 164.5 120 159.5 126.5C154.5 133 141 127 140 136.5Z" fill="#6ECFB8" stroke="#6ECFB8" stroke-width="5"/>
<path d="M32.5 62C26 59.5 27 63.5 21.5 64.5C17.2933 65.2648 19.7334 69.1939 23.8079 67.8977C30.3586 65.8139 35.9923 63.3432 32.5 62Z" fill="#6ECFB8" stroke="#6ECFB8"/>
<path d="M109.151 129.636C107.556 129.148 104.267 132.931 102.073 135.888C101.819 136.23 101.928 137.954 101.803 138.36C101.246 140.184 102.851 140.675 103.781 141.458C104.712 142.242 106.329 141.738 107.549 140.616C108.77 139.493 109.607 136.757 110.036 134.395C110.466 132.032 111.559 130.372 109.151 129.636Z" fill="#6ECFB8" stroke="#6ECFB8"/>
<path d="M32.6365 69.1988C32.2434 69.4306 31.7725 69.7607 31.437 70.1251C31.0629 70.5314 31.4477 71 32 71H32.1926C32.6385 71 33 71.3615 33 71.8074C33 72.3786 33.5769 72.7692 34.1073 72.5571L34.8116 72.2754C35.2274 72.1091 35.5 71.7064 35.5 71.2585C35.5 71.0885 35.4604 70.9208 35.3844 70.7688L34.9854 69.9708C34.6879 69.3758 34.0798 69 33.4146 69C33.1419 69 32.8713 69.0603 32.6365 69.1988Z" fill="#6ECFB8" stroke="#6ECFB8"/>
<path d="M165 35.5C154.5 29.5 154.5 26.5 149 19C143.102 10.9571 149.299 0.192174 159.183 1.52824C162.083 1.92033 164.921 2.40481 167.5 3C180.5 6 179.5 7.5 186.5 12C193.5 16.5 205 26 205.5 28.5C206 31 210.5 49 202.5 51.5C194.5 54 186.5 54 179.5 49C172.5 44 175.5 41.5 165 35.5Z" fill="#6ECFB8" stroke="#6ECFB8"/>
<path d="M113.702 72.0672C111.693 70.5698 108.438 70.5543 105.582 70.6578C103.726 70.7251 102.332 72.6627 102.921 74.4236C103.09 74.9275 103.408 75.3684 103.837 75.6815C104.924 76.4737 106.402 77.5136 106.72 77.5898C107.206 77.7066 110.473 76.9483 112.418 77.4152C114.363 77.8821 116.444 79.9243 117.902 80.2745C119.361 80.6246 120.547 77.8242 120.178 77.2213C119.808 76.6184 116.755 74.3428 113.702 72.0672Z" fill="#6ECFB8" stroke="#6ECFB8"/>
<path d="M171.5 113.5C168.267 114.51 164.982 116.159 162.201 117.801C160.681 118.698 157.378 116.103 156 115C155.771 114.817 155.671 114.619 155.679 114.41C155.99 106.701 178.864 111.199 171.5 113.5Z" fill="#6ECFB8" stroke="#6ECFB8"/>
<path d="M53.8073 175.893C47.4196 170.84 39.5298 168.952 31.837 168.775C16.6965 168.425 8.51512 186.594 21.3934 194.563C33.0063 201.749 62.5056 207.41 72.1674 196.145C81.8292 184.88 72.4377 190.629 53.8073 175.893Z" fill="#6ECFB8" stroke="#6ECFB8"/>
<path d="M-25.8648 115.549C-25.7359 123.692 -22.2059 130.996 -17.4761 137.066C-8.16719 149.012 11.0789 143.852 9.10198 128.837C7.31933 115.297 -6.9615 88.8719 -21.7981 88.5173C-36.6347 88.1626 -26.2407 91.798 -25.8648 115.549Z" fill="#6ECFB8" stroke="#6ECFB8"/>
</g>
<defs>
<clipPath id="clip0_30_133">
<rect width="196" height="196" rx="98" fill="white"/>
</clipPath>
</defs>
</svg>
