<svg width="126" height="111" viewBox="0 0 126 111" fill="none" xmlns="http://www.w3.org/2000/svg">
<g filter="url(#filter0_i_19_26)">
<path d="M112.782 70.9394C109.631 77.6966 85.9765 73.3355 59.9484 61.1984C33.9203 49.0613 15.3748 33.7444 18.5257 26.9871C21.6767 20.2298 45.331 24.591 71.3591 36.7281C97.3872 48.8652 115.933 64.1821 112.782 70.9394Z" fill="#AAA2D7"/>
</g>
<path d="M18.7562 27.8656C22.8305 42.8238 35.3309 60.9105 55.5109 70.7146C69.9438 77.7266 87.6098 81.9926 111.988 71.2921M21.8452 35.1109C20.6557 32.3601 19.7247 29.6502 19.0562 27.0442C19.7834 25.6909 21.5862 24.7833 24.507 24.4483C27.5043 24.1046 31.5148 24.3866 36.2728 25.2639C45.7813 27.017 58.1607 31.1252 71.1478 37.1812C84.1349 43.2372 95.2393 50.0796 102.694 56.2367C106.425 59.3176 109.218 62.2085 110.882 64.7256C112.5 67.1743 112.965 69.1363 112.4 70.5627C109.735 71.7546 107.151 72.7667 104.644 73.6151C101.974 73.6661 98.73 73.3439 95.0346 72.6625C85.5262 70.9095 73.1468 66.8012 60.1597 60.7452C47.1726 54.6892 36.0681 47.8468 28.6133 41.6898C25.7947 39.3619 23.5108 37.1425 21.8452 35.1109ZM110.626 72.4196C110.207 72.6483 109.723 72.8466 109.172 73.0125C109.654 72.8208 110.138 72.6232 110.626 72.4196Z" stroke="black"/>
<g filter="url(#filter1_i_19_26)">
<path d="M55.5109 70.7146C34.9342 60.7178 19.2843 38.3745 18.9789 27.1984C21.55 39.4311 39.8712 50.6444 60.3347 60.37C74.8403 67.264 99.0361 76.7549 112.329 70.728C94.3295 83.2991 70.1001 77.8024 55.5109 70.7146Z" fill="#A08ADE"/>
</g>
<path d="M55.7294 70.2648C45.5221 65.3058 36.5216 57.2749 30.0351 49.0882C26.793 44.9964 24.1863 40.8747 22.3732 37.0908C21.6114 35.5011 20.9926 33.9769 20.5253 32.544C22.9991 36.9298 27.2754 41.1291 32.6488 45.1255C40.1478 50.703 49.8788 55.9542 60.1201 60.8216C67.3854 64.2745 77.0931 68.3857 86.6605 70.8782C94.4596 72.91 102.247 73.8888 108.553 72.4896C100.492 76.9311 91.4385 78.1903 82.6749 77.5945C72.6199 76.9109 62.9779 73.7864 55.7294 70.2648Z" stroke="black"/>
<g filter="url(#filter2_i_19_26)">
<path d="M90.3353 58.7059C105.732 23.452 59.1894 3.80941 42.8038 36.4825C42.4889 37.1105 42.5369 37.8783 42.949 38.4473C49.3991 47.3549 66.4343 62.6141 88.8096 59.855C89.4765 59.7727 90.0664 59.3217 90.3353 58.7059Z" fill="#F5D068"/>
</g>
<path d="M90.3353 58.7059C105.732 23.452 59.1894 3.80941 42.8038 36.4825C42.4889 37.1105 42.5369 37.8783 42.949 38.4473C49.3991 47.3549 66.4343 62.6141 88.8096 59.855C89.4765 59.7727 90.0664 59.3217 90.3353 58.7059Z" stroke="black" stroke-width="1.5"/>
<path d="M70.0143 85.7529C69.9705 85.8469 69.8633 85.964 69.5992 86.0643C69.3328 86.1656 68.9505 86.2315 68.4435 86.2445C67.4314 86.2703 66.0357 86.0833 64.342 85.6888C60.9626 84.9017 56.5019 83.3138 51.7684 81.1066C47.035 78.8993 42.9513 76.5029 40.1761 74.4201C38.7852 73.3762 37.7448 72.4272 37.1141 71.6353C36.798 71.2386 36.6028 70.9034 36.5091 70.6342C36.4163 70.3674 36.4371 70.21 36.4809 70.1161C36.5247 70.0221 36.6319 69.905 36.896 69.8046C37.1624 69.7033 37.5447 69.6374 38.0517 69.6245C39.0638 69.5987 40.4595 69.7856 42.1533 70.1801C45.5326 70.9672 49.9933 72.5552 54.7268 74.7624C59.4602 76.9697 63.5439 79.3661 66.3191 81.4489C67.71 82.4928 68.7504 83.4417 69.3811 84.2336C69.6972 84.6304 69.8924 84.9656 69.9861 85.2348C70.0789 85.5016 70.0581 85.659 70.0143 85.7529Z" stroke="black"/>
<path d="M59.8869 91.6964C59.882 91.707 59.853 91.7613 59.7021 91.8187C59.5487 91.877 59.3146 91.9196 58.9865 91.928C58.3323 91.9447 57.4176 91.8235 56.2942 91.5618C54.0556 91.0404 51.0929 89.9864 47.9445 88.5183C44.7961 87.0501 42.0843 85.4581 40.2459 84.0784C39.3234 83.386 38.6426 82.7632 38.2349 82.2513C38.0304 81.9946 37.9125 81.7879 37.8586 81.6329C37.8055 81.4804 37.8285 81.4233 37.8334 81.4127C37.8384 81.4022 37.8674 81.3479 38.0183 81.2905C38.1716 81.2322 38.4057 81.1896 38.7339 81.1812C39.3881 81.1645 40.3027 81.2857 41.4261 81.5473C43.6648 82.0688 46.6274 83.1228 49.7759 84.5909C52.9243 86.0591 55.6361 87.6511 57.4745 89.0308C58.397 89.7232 59.0778 90.346 59.4855 90.8579C59.69 91.1146 59.8078 91.3213 59.8617 91.4762C59.9148 91.6287 59.8918 91.6859 59.8869 91.6964Z" stroke="black"/>
<path d="M79.2673 26.8674C83.0588 29.6736 90.131 37.954 88.0873 48.6265" stroke="#FAE3A4" stroke-width="3" stroke-linecap="round"/>
<defs>
<filter id="filter0_i_19_26" x="18.1769" y="23.8061" width="94.9537" height="53.9599" filterUnits="userSpaceOnUse" color-interpolation-filters="sRGB">
<feFlood flood-opacity="0" result="BackgroundImageFix"/>
<feBlend mode="normal" in="SourceGraphic" in2="BackgroundImageFix" result="shape"/>
<feColorMatrix in="SourceAlpha" type="matrix" values="0 0 0 0 0 0 0 0 0 0 0 0 0 0 0 0 0 0 127 0" result="hardAlpha"/>
<feOffset dx="8" dy="4"/>
<feComposite in2="hardAlpha" operator="arithmetic" k2="-1" k3="1"/>
<feColorMatrix type="matrix" values="0 0 0 0 0 0 0 0 0 0 0 0 0 0 0 0 0 0 0.25 0"/>
<feBlend mode="normal" in2="shape" result="effect1_innerShadow_19_26"/>
</filter>
<filter id="filter1_i_19_26" x="18.9789" y="27.1984" width="93.3497" height="51.0346" filterUnits="userSpaceOnUse" color-interpolation-filters="sRGB">
<feFlood flood-opacity="0" result="BackgroundImageFix"/>
<feBlend mode="normal" in="SourceGraphic" in2="BackgroundImageFix" result="shape"/>
<feColorMatrix in="SourceAlpha" type="matrix" values="0 0 0 0 0 0 0 0 0 0 0 0 0 0 0 0 0 0 127 0" result="hardAlpha"/>
<feOffset dx="4" dy="-1"/>
<feComposite in2="hardAlpha" operator="arithmetic" k2="-1" k3="1"/>
<feColorMatrix type="matrix" values="0 0 0 0 0 0 0 0 0 0 0 0 0 0 0 0 0 0 0.25 0"/>
<feBlend mode="normal" in2="shape" result="effect1_innerShadow_19_26"/>
</filter>
<filter id="filter2_i_19_26" x="41.849" y="19.0728" width="52.3139" height="41.8614" filterUnits="userSpaceOnUse" color-interpolation-filters="sRGB">
<feFlood flood-opacity="0" result="BackgroundImageFix"/>
<feBlend mode="normal" in="SourceGraphic" in2="BackgroundImageFix" result="shape"/>
<feColorMatrix in="SourceAlpha" type="matrix" values="0 0 0 0 0 0 0 0 0 0 0 0 0 0 0 0 0 0 127 0" result="hardAlpha"/>
<feOffset dx="4"/>
<feComposite in2="hardAlpha" operator="arithmetic" k2="-1" k3="1"/>
<feColorMatrix type="matrix" values="0 0 0 0 0 0 0 0 0 0 0 0 0 0 0 0 0 0 0.25 0"/>
<feBlend mode="normal" in2="shape" result="effect1_innerShadow_19_26"/>
</filter>
</defs>
</svg>
